<svg xmlns="http://www.w3.org/2000/svg" xmlns:xlink="http://www.w3.org/1999/xlink" width="500" zoomAndPan="magnify" viewBox="0 0 375 127.500001" height="170" preserveAspectRatio="xMidYMid meet" version="1.0"><defs><g/><clipPath id="e8f71997b1"><path d="M 39 15 L 107.859375 15 L 107.859375 125.816406 L 39 125.816406 Z M 39 15 " clip-rule="nonzero"/></clipPath><clipPath id="41a8290baf"><path d="M 4.765625 1.054688 L 74 1.054688 L 74 112 L 4.765625 112 Z M 4.765625 1.054688 " clip-rule="nonzero"/></clipPath></defs><g fill="#ffffff" fill-opacity="1"><g transform="translate(122.351289, 86.506424)"><g><path d="M 13.796875 -9.75 C 14.234375 -9.132812 14.554688 -8.488281 14.765625 -7.8125 C 14.972656 -7.144531 15.078125 -6.421875 15.078125 -5.640625 C 15.078125 -3.679688 14.375 -2.0625 12.96875 -0.78125 C 11.5625 0.5 9.832031 1.140625 7.78125 1.140625 C 5.519531 1.140625 3.632812 0.441406 2.125 -0.953125 C 0.613281 -2.347656 -0.140625 -4.003906 -0.140625 -5.921875 C 0.460938 -6.234375 1.195312 -6.5 2.0625 -6.71875 C 2.925781 -6.9375 3.644531 -7.046875 4.21875 -7.046875 C 4.21875 -5.597656 4.488281 -4.429688 5.03125 -3.546875 C 5.570312 -2.660156 6.304688 -2.21875 7.234375 -2.21875 C 7.898438 -2.21875 8.410156 -2.398438 8.765625 -2.765625 C 9.128906 -3.140625 9.3125 -3.648438 9.3125 -4.296875 C 9.3125 -4.847656 9.125 -5.382812 8.75 -5.90625 C 8.382812 -6.4375 7.566406 -7.1875 6.296875 -8.15625 C 5.347656 -8.875 4.644531 -9.453125 4.1875 -9.890625 C 3.726562 -10.328125 3.335938 -10.753906 3.015625 -11.171875 C 2.566406 -11.816406 2.226562 -12.484375 2 -13.171875 C 1.769531 -13.867188 1.65625 -14.617188 1.65625 -15.421875 C 1.65625 -17.316406 2.332031 -18.863281 3.6875 -20.0625 C 5.050781 -21.257812 6.832031 -21.859375 9.03125 -21.859375 C 10.988281 -21.859375 12.5625 -21.382812 13.75 -20.4375 C 14.9375 -19.5 15.722656 -18.113281 16.109375 -16.28125 C 15.554688 -15.914062 14.925781 -15.632812 14.21875 -15.4375 C 13.519531 -15.238281 12.597656 -15.097656 11.453125 -15.015625 C 11.285156 -16.191406 11 -17.035156 10.59375 -17.546875 C 10.195312 -18.066406 9.648438 -18.328125 8.953125 -18.328125 C 8.515625 -18.328125 8.164062 -18.1875 7.90625 -17.90625 C 7.65625 -17.632812 7.53125 -17.269531 7.53125 -16.8125 C 7.53125 -16.1875 7.71875 -15.585938 8.09375 -15.015625 C 8.46875 -14.453125 9.304688 -13.6875 10.609375 -12.71875 C 11.554688 -12.007812 12.25 -11.445312 12.6875 -11.03125 C 13.125 -10.613281 13.492188 -10.1875 13.796875 -9.75 Z M 13.796875 -9.75 "/></g></g></g><g fill="#ffffff" fill-opacity="1"><g transform="translate(137.168645, 86.506424)"><g><path d="M 11.40625 -1.25 C 10.5625 -1.039062 9.734375 -0.890625 8.921875 -0.796875 C 8.117188 -0.703125 7.21875 -0.65625 6.21875 -0.65625 C 6.21875 -3.3125 6.140625 -6.179688 5.984375 -9.265625 C 5.828125 -12.359375 5.617188 -15.023438 5.359375 -17.265625 C 5.109375 -17.253906 4.628906 -17.210938 3.921875 -17.140625 C 3.222656 -17.078125 2.285156 -16.988281 1.109375 -16.875 C 0.859375 -17.539062 0.664062 -18.222656 0.53125 -18.921875 C 0.40625 -19.628906 0.34375 -20.3125 0.34375 -20.96875 C 2.945312 -21.5625 5.429688 -21.984375 7.796875 -22.234375 C 10.160156 -22.492188 12.832031 -22.625 15.8125 -22.625 C 15.90625 -22.300781 15.976562 -21.9375 16.03125 -21.53125 C 16.082031 -21.125 16.109375 -20.671875 16.109375 -20.171875 C 16.109375 -19.835938 16.082031 -19.46875 16.03125 -19.0625 C 15.976562 -18.664062 15.894531 -18.226562 15.78125 -17.75 C 15.0625 -17.75 14.359375 -17.742188 13.671875 -17.734375 C 12.992188 -17.734375 12.320312 -17.710938 11.65625 -17.671875 C 11.726562 -16.492188 11.785156 -15.265625 11.828125 -13.984375 C 11.867188 -12.710938 11.890625 -11.40625 11.890625 -10.0625 C 11.890625 -8.800781 11.847656 -7.441406 11.765625 -5.984375 C 11.691406 -4.535156 11.570312 -2.957031 11.40625 -1.25 Z M 11.40625 -1.25 "/></g></g></g><g fill="#ffffff" fill-opacity="1"><g transform="translate(152.584423, 86.506424)"><g><path d="M 15.9375 -18.84375 C 14.738281 -14.257812 13.429688 -10.238281 12.015625 -6.78125 C 10.597656 -3.320312 8.929688 -0.0820312 7.015625 2.9375 C 6.253906 2.75 5.445312 2.460938 4.59375 2.078125 C 3.75 1.703125 3.09375 1.320312 2.625 0.9375 C 3.289062 -0.175781 3.898438 -1.257812 4.453125 -2.3125 C 5.015625 -3.375 5.523438 -4.425781 5.984375 -5.46875 C 4.597656 -7.175781 3.390625 -9.179688 2.359375 -11.484375 C 1.335938 -13.785156 0.503906 -16.351562 -0.140625 -19.1875 C 0.648438 -19.75 1.503906 -20.175781 2.421875 -20.46875 C 3.347656 -20.769531 4.382812 -20.945312 5.53125 -21 C 5.8125 -18.894531 6.148438 -17.082031 6.546875 -15.5625 C 6.953125 -14.039062 7.476562 -12.578125 8.125 -11.171875 C 8.5625 -12.523438 8.957031 -13.976562 9.3125 -15.53125 C 9.675781 -17.09375 10.019531 -18.84375 10.34375 -20.78125 C 11.488281 -20.625 12.507812 -20.390625 13.40625 -20.078125 C 14.3125 -19.765625 15.15625 -19.351562 15.9375 -18.84375 Z M 15.9375 -18.84375 "/></g></g></g><g fill="#ffffff" fill-opacity="1"><g transform="translate(167.515766, 86.506424)"><g><path d="M 14.671875 -2.3125 C 14.828125 -1.8125 14.972656 -1.109375 15.109375 -0.203125 C 15.253906 0.691406 15.328125 1.453125 15.328125 2.078125 C 13.453125 2.078125 11.65625 2.144531 9.9375 2.28125 C 8.21875 2.414062 6.070312 2.660156 3.5 3.015625 C 3.050781 0.191406 2.648438 -3.390625 2.296875 -7.734375 C 1.941406 -12.078125 1.765625 -15.691406 1.765625 -18.578125 C 2.640625 -18.804688 3.5 -18.976562 4.34375 -19.09375 C 5.1875 -19.207031 6.03125 -19.265625 6.875 -19.265625 C 7.113281 -19.265625 7.351562 -19.257812 7.59375 -19.25 C 7.832031 -19.238281 8.082031 -19.21875 8.34375 -19.1875 C 8.195312 -18.226562 8.078125 -16.957031 7.984375 -15.375 C 7.890625 -13.789062 7.84375 -12.101562 7.84375 -10.3125 C 7.84375 -7.726562 7.875 -5.804688 7.9375 -4.546875 C 8 -3.296875 8.109375 -2.226562 8.265625 -1.34375 C 9.328125 -1.644531 10.421875 -1.878906 11.546875 -2.046875 C 12.679688 -2.222656 13.722656 -2.3125 14.671875 -2.3125 Z M 14.671875 -2.3125 "/></g></g></g><g fill="#ffffff" fill-opacity="1"><g transform="translate(181.563729, 86.506424)"><g><path d="M 7.78125 -14.984375 C 7.78125 -12.398438 7.722656 -9.695312 7.609375 -6.875 C 7.492188 -4.0625 7.34375 -1.65625 7.15625 0.34375 C 6.625 0.488281 5.894531 0.617188 4.96875 0.734375 C 4.050781 0.847656 3.203125 0.90625 2.421875 0.90625 C 2.421875 -3.0625 2.332031 -6.671875 2.15625 -9.921875 C 1.988281 -13.171875 1.734375 -16.085938 1.390625 -18.671875 C 1.847656 -18.972656 2.382812 -19.207031 3 -19.375 C 3.625 -19.550781 4.273438 -19.640625 4.953125 -19.640625 C 5.472656 -19.640625 5.9375 -19.613281 6.34375 -19.5625 C 6.75 -19.519531 7.195312 -19.429688 7.6875 -19.296875 C 7.707031 -18.703125 7.726562 -18.039062 7.75 -17.3125 C 7.769531 -16.582031 7.78125 -15.804688 7.78125 -14.984375 Z M 7.78125 -14.984375 "/></g></g></g><g fill="#ffffff" fill-opacity="1"><g transform="translate(189.883998, 86.506424)"><g><path d="M 13.796875 -9.75 C 14.234375 -9.132812 14.554688 -8.488281 14.765625 -7.8125 C 14.972656 -7.144531 15.078125 -6.421875 15.078125 -5.640625 C 15.078125 -3.679688 14.375 -2.0625 12.96875 -0.78125 C 11.5625 0.5 9.832031 1.140625 7.78125 1.140625 C 5.519531 1.140625 3.632812 0.441406 2.125 -0.953125 C 0.613281 -2.347656 -0.140625 -4.003906 -0.140625 -5.921875 C 0.460938 -6.234375 1.195312 -6.5 2.0625 -6.71875 C 2.925781 -6.9375 3.644531 -7.046875 4.21875 -7.046875 C 4.21875 -5.597656 4.488281 -4.429688 5.03125 -3.546875 C 5.570312 -2.660156 6.304688 -2.21875 7.234375 -2.21875 C 7.898438 -2.21875 8.410156 -2.398438 8.765625 -2.765625 C 9.128906 -3.140625 9.3125 -3.648438 9.3125 -4.296875 C 9.3125 -4.847656 9.125 -5.382812 8.75 -5.90625 C 8.382812 -6.4375 7.566406 -7.1875 6.296875 -8.15625 C 5.347656 -8.875 4.644531 -9.453125 4.1875 -9.890625 C 3.726562 -10.328125 3.335938 -10.753906 3.015625 -11.171875 C 2.566406 -11.816406 2.226562 -12.484375 2 -13.171875 C 1.769531 -13.867188 1.65625 -14.617188 1.65625 -15.421875 C 1.65625 -17.316406 2.332031 -18.863281 3.6875 -20.0625 C 5.050781 -21.257812 6.832031 -21.859375 9.03125 -21.859375 C 10.988281 -21.859375 12.5625 -21.382812 13.75 -20.4375 C 14.9375 -19.5 15.722656 -18.113281 16.109375 -16.28125 C 15.554688 -15.914062 14.925781 -15.632812 14.21875 -15.4375 C 13.519531 -15.238281 12.597656 -15.097656 11.453125 -15.015625 C 11.285156 -16.191406 11 -17.035156 10.59375 -17.546875 C 10.195312 -18.066406 9.648438 -18.328125 8.953125 -18.328125 C 8.515625 -18.328125 8.164062 -18.1875 7.90625 -17.90625 C 7.65625 -17.632812 7.53125 -17.269531 7.53125 -16.8125 C 7.53125 -16.1875 7.71875 -15.585938 8.09375 -15.015625 C 8.46875 -14.453125 9.304688 -13.6875 10.609375 -12.71875 C 11.554688 -12.007812 12.25 -11.445312 12.6875 -11.03125 C 13.125 -10.613281 13.492188 -10.1875 13.796875 -9.75 Z M 13.796875 -9.75 "/></g></g></g><g fill="#ffffff" fill-opacity="1"><g transform="translate(204.701354, 86.506424)"><g><path d="M 17.671875 -20.234375 C 17.816406 -17.117188 17.941406 -13.46875 18.046875 -9.28125 C 18.160156 -5.101562 18.21875 -1.441406 18.21875 1.703125 C 17.164062 1.703125 16.078125 1.65625 14.953125 1.5625 C 13.835938 1.46875 13.035156 1.347656 12.546875 1.203125 C 12.546875 -0.0351562 12.535156 -1.476562 12.515625 -3.125 C 12.492188 -4.78125 12.472656 -6.457031 12.453125 -8.15625 C 11.523438 -8.132812 10.648438 -8.097656 9.828125 -8.046875 C 9.015625 -8.003906 8.25 -7.9375 7.53125 -7.84375 C 7.507812 -6.882812 7.492188 -5.878906 7.484375 -4.828125 C 7.472656 -3.773438 7.46875 -2.394531 7.46875 -0.6875 C 6.96875 -0.53125 6.207031 -0.394531 5.1875 -0.28125 C 4.175781 -0.164062 3.265625 -0.109375 2.453125 -0.109375 C 2.054688 -4.953125 1.773438 -8.859375 1.609375 -11.828125 C 1.453125 -14.796875 1.375 -17.3125 1.375 -19.375 C 1.820312 -19.6875 2.390625 -19.925781 3.078125 -20.09375 C 3.765625 -20.257812 4.46875 -20.34375 5.1875 -20.34375 C 5.71875 -20.34375 6.203125 -20.3125 6.640625 -20.25 C 7.078125 -20.195312 7.515625 -20.113281 7.953125 -20 C 7.878906 -19.144531 7.8125 -18.039062 7.75 -16.6875 C 7.695312 -15.34375 7.648438 -13.835938 7.609375 -12.171875 C 8.441406 -12.304688 9.25 -12.414062 10.03125 -12.5 C 10.8125 -12.582031 11.59375 -12.632812 12.375 -12.65625 C 12.332031 -14.3125 12.269531 -15.84375 12.1875 -17.25 C 12.113281 -18.664062 12.039062 -19.851562 11.96875 -20.8125 C 12.425781 -20.914062 12.847656 -20.992188 13.234375 -21.046875 C 13.628906 -21.109375 14.035156 -21.140625 14.453125 -21.140625 C 15.054688 -21.140625 15.644531 -21.054688 16.21875 -20.890625 C 16.789062 -20.734375 17.273438 -20.515625 17.671875 -20.234375 Z M 17.671875 -20.234375 "/></g></g></g><g fill="#ffffff" fill-opacity="1"><g transform="translate(223.137702, 86.506424)"><g/></g></g><g fill="#ffffff" fill-opacity="1"><g transform="translate(228.266421, 86.506424)"><g><path d="M 7.46875 -4.8125 L 7.46875 0.71875 C 6.96875 0.863281 6.253906 0.992188 5.328125 1.109375 C 4.398438 1.222656 3.554688 1.28125 2.796875 1.28125 C 2.429688 -2.863281 2.15625 -6.628906 1.96875 -10.015625 C 1.789062 -13.410156 1.703125 -16.285156 1.703125 -18.640625 C 1.835938 -18.734375 1.941406 -18.796875 2.015625 -18.828125 C 2.097656 -18.867188 2.175781 -18.910156 2.25 -18.953125 C 2.988281 -19.328125 3.84375 -19.632812 4.8125 -19.875 C 5.78125 -20.113281 6.789062 -20.253906 7.84375 -20.296875 C 8.976562 -18.640625 9.976562 -17.015625 10.84375 -15.421875 C 11.707031 -13.835938 12.507812 -12.144531 13.25 -10.34375 C 13.25 -12.625 13.203125 -14.648438 13.109375 -16.421875 C 13.015625 -18.203125 12.882812 -19.65625 12.71875 -20.78125 C 13.695312 -21.082031 14.671875 -21.3125 15.640625 -21.46875 C 16.609375 -21.632812 17.570312 -21.71875 18.53125 -21.71875 C 18.582031 -20.632812 18.617188 -19.585938 18.640625 -18.578125 C 18.660156 -17.578125 18.671875 -16.597656 18.671875 -15.640625 C 18.671875 -13.304688 18.617188 -10.859375 18.515625 -8.296875 C 18.410156 -5.742188 18.269531 -3.289062 18.09375 -0.9375 C 16.914062 -0.75 15.941406 -0.613281 15.171875 -0.53125 C 14.398438 -0.445312 13.65625 -0.382812 12.9375 -0.34375 C 11.71875 -3.289062 10.710938 -5.566406 9.921875 -7.171875 C 9.140625 -8.773438 8.332031 -10.242188 7.5 -11.578125 C 7.476562 -10.796875 7.46875 -9.929688 7.46875 -8.984375 C 7.46875 -8.046875 7.46875 -6.65625 7.46875 -4.8125 Z M 7.46875 -4.8125 "/></g></g></g><g fill="#ffffff" fill-opacity="1"><g transform="translate(247.358185, 86.506424)"><g><path d="M 19.15625 1.5625 C 18.488281 2 17.691406 2.363281 16.765625 2.65625 C 15.847656 2.957031 14.753906 3.179688 13.484375 3.328125 C 13.367188 2.191406 13.210938 1.003906 13.015625 -0.234375 C 12.816406 -1.484375 12.5625 -2.753906 12.25 -4.046875 C 11.039062 -4.023438 9.953125 -3.984375 8.984375 -3.921875 C 8.015625 -3.867188 7.097656 -3.785156 6.234375 -3.671875 C 5.929688 -2.816406 5.617188 -2 5.296875 -1.21875 C 4.972656 -0.445312 4.648438 0.257812 4.328125 0.90625 C 3.398438 0.757812 2.519531 0.460938 1.6875 0.015625 C 0.863281 -0.429688 0.21875 -0.957031 -0.25 -1.5625 C 1.207031 -4.28125 2.476562 -7.019531 3.5625 -9.78125 C 4.644531 -12.550781 5.773438 -16.035156 6.953125 -20.234375 C 7.878906 -20.234375 8.71875 -20.191406 9.46875 -20.109375 C 10.226562 -20.023438 11.0625 -19.867188 11.96875 -19.640625 C 13.625 -17.015625 15.054688 -13.894531 16.265625 -10.28125 C 17.484375 -6.675781 18.445312 -2.726562 19.15625 1.5625 Z M 9.3125 -13.703125 C 9.070312 -12.773438 8.796875 -11.785156 8.484375 -10.734375 C 8.179688 -9.691406 7.863281 -8.628906 7.53125 -7.546875 C 8.175781 -7.640625 8.804688 -7.710938 9.421875 -7.765625 C 10.035156 -7.828125 10.65625 -7.867188 11.28125 -7.890625 C 10.957031 -8.953125 10.632812 -9.96875 10.3125 -10.9375 C 9.988281 -11.90625 9.65625 -12.828125 9.3125 -13.703125 Z M 9.3125 -13.703125 "/></g></g></g><g fill="#ffffff" fill-opacity="1"><g transform="translate(265.395587, 86.506424)"><g><path d="M 22.921875 0.40625 C 21.867188 0.800781 20.898438 1.070312 20.015625 1.21875 C 19.140625 1.375 18.128906 1.453125 16.984375 1.453125 C 17.160156 -0.460938 17.300781 -2.703125 17.40625 -5.265625 C 17.519531 -7.835938 17.617188 -10.554688 17.703125 -13.421875 C 16.992188 -12.242188 16.332031 -11.023438 15.71875 -9.765625 C 15.113281 -8.515625 14.554688 -7.226562 14.046875 -5.90625 C 13.585938 -5.769531 13.039062 -5.691406 12.40625 -5.671875 C 11.769531 -5.648438 11.160156 -5.695312 10.578125 -5.8125 C 10.023438 -7.050781 9.429688 -8.265625 8.796875 -9.453125 C 8.171875 -10.640625 7.507812 -11.789062 6.8125 -12.90625 C 6.8125 -10.613281 6.9375 -8.335938 7.1875 -6.078125 C 7.445312 -3.828125 7.796875 -1.953125 8.234375 -0.453125 C 7.722656 -0.304688 6.941406 -0.175781 5.890625 -0.0625 C 4.847656 0.0507812 3.882812 0.109375 3 0.109375 C 2.632812 -2.378906 2.328125 -5.554688 2.078125 -9.421875 C 1.828125 -13.285156 1.703125 -16.691406 1.703125 -19.640625 C 2.523438 -20.203125 3.425781 -20.679688 4.40625 -21.078125 C 5.382812 -21.484375 6.300781 -21.742188 7.15625 -21.859375 C 8.519531 -20.085938 9.660156 -18.46875 10.578125 -17 C 11.503906 -15.539062 12.289062 -14.117188 12.9375 -12.734375 C 13.65625 -14.410156 14.445312 -16.015625 15.3125 -17.546875 C 16.175781 -19.078125 17.09375 -20.503906 18.0625 -21.828125 C 18.820312 -21.710938 19.582031 -21.546875 20.34375 -21.328125 C 21.101562 -21.109375 21.828125 -20.835938 22.515625 -20.515625 C 22.648438 -17.910156 22.75 -14.738281 22.8125 -11 C 22.882812 -7.257812 22.921875 -3.457031 22.921875 0.40625 Z M 22.921875 0.40625 "/></g></g></g><g fill="#ffffff" fill-opacity="1"><g transform="translate(288.106352, 86.506424)"><g><path d="M 16.5 0.28125 C 15.945312 0.457031 14.179688 0.65625 11.203125 0.875 C 8.234375 1.101562 5.753906 1.21875 3.765625 1.21875 C 3.285156 -1.800781 2.847656 -5.320312 2.453125 -9.34375 C 2.066406 -13.375 1.859375 -16.726562 1.828125 -19.40625 C 4.753906 -19.957031 7.296875 -20.351562 9.453125 -20.59375 C 11.609375 -20.832031 13.71875 -20.953125 15.78125 -20.953125 C 15.78125 -20.242188 15.738281 -19.492188 15.65625 -18.703125 C 15.570312 -17.921875 15.4375 -17.101562 15.25 -16.25 C 14.1875 -16.25 13.082031 -16.226562 11.9375 -16.1875 C 10.800781 -16.144531 9.613281 -16.085938 8.375 -16.015625 C 8.34375 -15.597656 8.316406 -15.117188 8.296875 -14.578125 C 8.273438 -14.035156 8.253906 -13.222656 8.234375 -12.140625 C 9.203125 -12.421875 10.171875 -12.628906 11.140625 -12.765625 C 12.109375 -12.898438 13.097656 -12.96875 14.109375 -12.96875 C 14.253906 -12.300781 14.363281 -11.613281 14.4375 -10.90625 C 14.519531 -10.207031 14.5625 -9.382812 14.5625 -8.4375 C 13.476562 -8.4375 12.40625 -8.398438 11.34375 -8.328125 C 10.28125 -8.265625 9.242188 -8.175781 8.234375 -8.0625 C 8.253906 -7.207031 8.28125 -6.367188 8.3125 -5.546875 C 8.351562 -4.734375 8.414062 -3.957031 8.5 -3.21875 C 9.039062 -3.21875 10.195312 -3.328125 11.96875 -3.546875 C 13.738281 -3.765625 15.066406 -3.957031 15.953125 -4.125 C 16.109375 -3.726562 16.238281 -3.078125 16.34375 -2.171875 C 16.445312 -1.273438 16.5 -0.457031 16.5 0.28125 Z M 16.5 0.28125 "/></g></g></g><g fill="#ffffff" fill-opacity="1"><g transform="translate(304.32001, 86.506424)"><g><path d="M 13.796875 -9.75 C 14.234375 -9.132812 14.554688 -8.488281 14.765625 -7.8125 C 14.972656 -7.144531 15.078125 -6.421875 15.078125 -5.640625 C 15.078125 -3.679688 14.375 -2.0625 12.96875 -0.78125 C 11.5625 0.5 9.832031 1.140625 7.78125 1.140625 C 5.519531 1.140625 3.632812 0.441406 2.125 -0.953125 C 0.613281 -2.347656 -0.140625 -4.003906 -0.140625 -5.921875 C 0.460938 -6.234375 1.195312 -6.5 2.0625 -6.71875 C 2.925781 -6.9375 3.644531 -7.046875 4.21875 -7.046875 C 4.21875 -5.597656 4.488281 -4.429688 5.03125 -3.546875 C 5.570312 -2.660156 6.304688 -2.21875 7.234375 -2.21875 C 7.898438 -2.21875 8.410156 -2.398438 8.765625 -2.765625 C 9.128906 -3.140625 9.3125 -3.648438 9.3125 -4.296875 C 9.3125 -4.847656 9.125 -5.382812 8.75 -5.90625 C 8.382812 -6.4375 7.566406 -7.1875 6.296875 -8.15625 C 5.347656 -8.875 4.644531 -9.453125 4.1875 -9.890625 C 3.726562 -10.328125 3.335938 -10.753906 3.015625 -11.171875 C 2.566406 -11.816406 2.226562 -12.484375 2 -13.171875 C 1.769531 -13.867188 1.65625 -14.617188 1.65625 -15.421875 C 1.65625 -17.316406 2.332031 -18.863281 3.6875 -20.0625 C 5.050781 -21.257812 6.832031 -21.859375 9.03125 -21.859375 C 10.988281 -21.859375 12.5625 -21.382812 13.75 -20.4375 C 14.9375 -19.5 15.722656 -18.113281 16.109375 -16.28125 C 15.554688 -15.914062 14.925781 -15.632812 14.21875 -15.4375 C 13.519531 -15.238281 12.597656 -15.097656 11.453125 -15.015625 C 11.285156 -16.191406 11 -17.035156 10.59375 -17.546875 C 10.195312 -18.066406 9.648438 -18.328125 8.953125 -18.328125 C 8.515625 -18.328125 8.164062 -18.1875 7.90625 -17.90625 C 7.65625 -17.632812 7.53125 -17.269531 7.53125 -16.8125 C 7.53125 -16.1875 7.71875 -15.585938 8.09375 -15.015625 C 8.46875 -14.453125 9.304688 -13.6875 10.609375 -12.71875 C 11.554688 -12.007812 12.25 -11.445312 12.6875 -11.03125 C 13.125 -10.613281 13.492188 -10.1875 13.796875 -9.75 Z M 13.796875 -9.75 "/></g></g></g><g fill="#ffffff" fill-opacity="1"><g transform="translate(125.759053, 117.306287)"><g><path d="M 1.019531 1.425781 L 19.347656 1.425781 L 19.347656 -16.902344 L 1.019531 -16.902344 Z M 1.648438 0.792969 L 1.648438 -16.269531 L 18.714844 -16.269531 L 18.714844 0.792969 Z M 10.730469 -2.34375 C 12.238281 -2.34375 13.542969 -2.851562 14.316406 -3.542969 L 14.316406 -8.167969 L 10.488281 -8.167969 L 10.488281 -6.902344 L 12.769531 -6.902344 L 12.769531 -4.316406 C 12.339844 -3.972656 11.648438 -3.765625 10.875 -3.765625 C 8.53125 -3.765625 7.289062 -5.335938 7.289062 -7.839844 C 7.289062 -10.425781 8.695312 -11.933594 10.875 -11.933594 C 11.933594 -11.933594 12.625 -11.566406 13.195312 -10.996094 L 14.152344 -12.054688 C 13.441406 -12.707031 12.402344 -13.378906 10.835938 -13.378906 C 7.800781 -13.378906 5.519531 -11.300781 5.519531 -7.839844 C 5.519531 -4.316406 7.71875 -2.34375 10.730469 -2.34375 Z M 10.730469 -2.34375 "/></g></g></g><g fill="#ffffff" fill-opacity="1"><g transform="translate(145.304355, 117.306287)"><g><path d="M 1.019531 1.425781 L 19.347656 1.425781 L 19.347656 -16.902344 L 1.019531 -16.902344 Z M 1.648438 0.792969 L 1.648438 -16.269531 L 18.714844 -16.269531 L 18.714844 0.792969 Z M 7.105469 -2.585938 L 13.96875 -2.585938 L 13.96875 -3.949219 L 8.816406 -3.949219 L 8.816406 -7.433594 L 13.011719 -7.433594 L 13.011719 -8.757812 L 8.816406 -8.757812 L 8.816406 -11.769531 L 13.765625 -11.769531 L 13.765625 -13.136719 L 7.105469 -13.136719 Z M 7.105469 -2.585938 "/></g></g></g><g fill="#ffffff" fill-opacity="1"><g transform="translate(164.849656, 117.306287)"><g><path d="M 1.019531 1.425781 L 19.347656 1.425781 L 19.347656 -16.902344 L 1.019531 -16.902344 Z M 1.648438 0.792969 L 1.648438 -16.269531 L 18.714844 -16.269531 L 18.714844 0.792969 Z M 6.046875 -2.585938 L 7.617188 -2.585938 L 7.617188 -7.535156 C 7.617188 -8.675781 7.496094 -9.957031 7.414062 -11.078125 L 7.496094 -11.078125 L 8.738281 -8.777344 L 12.585938 -2.585938 L 14.316406 -2.585938 L 14.316406 -13.136719 L 12.726562 -13.136719 L 12.726562 -8.226562 C 12.726562 -7.066406 12.851562 -5.722656 12.953125 -4.664062 L 12.871094 -4.664062 L 11.628906 -6.925781 L 7.78125 -13.136719 L 6.046875 -13.136719 Z M 6.046875 -2.585938 "/></g></g></g><g fill="#ffffff" fill-opacity="1"><g transform="translate(184.39496, 117.306287)"><g><path d="M 1.019531 1.425781 L 19.347656 1.425781 L 19.347656 -16.902344 L 1.019531 -16.902344 Z M 1.648438 0.792969 L 1.648438 -16.269531 L 18.714844 -16.269531 L 18.714844 0.792969 Z M 7.105469 -2.585938 L 13.96875 -2.585938 L 13.96875 -3.949219 L 8.816406 -3.949219 L 8.816406 -7.433594 L 13.011719 -7.433594 L 13.011719 -8.757812 L 8.816406 -8.757812 L 8.816406 -11.769531 L 13.765625 -11.769531 L 13.765625 -13.136719 L 7.105469 -13.136719 Z M 7.105469 -2.585938 "/></g></g></g><g fill="#ffffff" fill-opacity="1"><g transform="translate(203.940258, 117.306287)"><g><path d="M 8.144531 -11.769531 L 9.875 -11.769531 C 11.566406 -11.769531 12.503906 -11.28125 12.503906 -9.957031 C 12.503906 -8.714844 11.628906 -8.042969 9.875 -8.042969 L 8.144531 -8.042969 Z M 8.144531 -6.820312 L 10.082031 -6.820312 L 12.6875 -2.585938 L 14.5 -2.585938 L 11.730469 -7.027344 C 13.195312 -7.433594 14.152344 -8.453125 14.152344 -10.058594 C 14.152344 -12.339844 12.421875 -13.136719 10.082031 -13.136719 L 6.414062 -13.136719 L 6.414062 -2.585938 L 8.144531 -2.585938 Z M 18.714844 0.792969 L 1.648438 0.792969 L 1.648438 -16.269531 L 18.714844 -16.269531 Z M 1.019531 -16.902344 L 1.019531 1.425781 L 19.347656 1.425781 L 19.347656 -16.902344 Z M 1.019531 -16.902344 "/></g></g></g><g fill="#ffffff" fill-opacity="1"><g transform="translate(223.485557, 117.306287)"><g><path d="M 10.183594 -11.75 C 10.550781 -10.609375 10.875 -9.488281 11.242188 -8.308594 L 11.730469 -6.84375 L 8.574219 -6.84375 L 9.0625 -8.308594 C 9.429688 -9.488281 9.734375 -10.589844 10.101562 -11.75 Z M 8.144531 -5.539062 L 12.15625 -5.539062 L 13.113281 -2.585938 L 14.90625 -2.585938 L 11.140625 -13.136719 L 9.203125 -13.136719 L 5.4375 -2.585938 L 7.148438 -2.585938 Z M 18.714844 0.792969 L 1.648438 0.792969 L 1.648438 -16.269531 L 18.714844 -16.269531 Z M 1.019531 -16.902344 L 1.019531 1.425781 L 19.347656 1.425781 L 19.347656 -16.902344 Z M 1.019531 -16.902344 "/></g></g></g><g fill="#ffffff" fill-opacity="1"><g transform="translate(243.030856, 117.306287)"><g><path d="M 1.019531 1.425781 L 19.347656 1.425781 L 19.347656 -16.902344 L 1.019531 -16.902344 Z M 1.648438 0.792969 L 1.648438 -16.269531 L 18.714844 -16.269531 L 18.714844 0.792969 Z M 9.308594 -2.585938 L 11.039062 -2.585938 L 11.039062 -11.710938 L 14.378906 -11.710938 L 14.378906 -13.136719 L 5.988281 -13.136719 L 5.988281 -11.710938 L 9.308594 -11.710938 Z M 9.308594 -2.585938 "/></g></g></g><g fill="#ffffff" fill-opacity="1"><g transform="translate(262.576155, 117.306287)"><g><path d="M 1.019531 1.425781 L 19.347656 1.425781 L 19.347656 -16.902344 L 1.019531 -16.902344 Z M 1.648438 0.792969 L 1.648438 -16.269531 L 18.714844 -16.269531 L 18.714844 0.792969 Z M 10.183594 -2.34375 C 13.09375 -2.34375 15.132812 -4.480469 15.132812 -7.902344 C 15.132812 -11.324219 13.09375 -13.378906 10.183594 -13.378906 C 7.269531 -13.378906 5.214844 -11.34375 5.214844 -7.902344 C 5.214844 -4.480469 7.269531 -2.34375 10.183594 -2.34375 Z M 10.183594 -3.789062 C 8.246094 -3.789062 6.984375 -5.375 6.984375 -7.902344 C 6.984375 -10.425781 8.246094 -11.933594 10.183594 -11.933594 C 12.117188 -11.933594 13.359375 -10.425781 13.359375 -7.902344 C 13.359375 -5.375 12.117188 -3.789062 10.183594 -3.789062 Z M 10.183594 -3.789062 "/></g></g></g><g fill="#ffffff" fill-opacity="1"><g transform="translate(282.121454, 117.306287)"><g><path d="M 8.144531 -11.769531 L 9.875 -11.769531 C 11.566406 -11.769531 12.503906 -11.28125 12.503906 -9.957031 C 12.503906 -8.714844 11.628906 -8.042969 9.875 -8.042969 L 8.144531 -8.042969 Z M 8.144531 -6.820312 L 10.082031 -6.820312 L 12.6875 -2.585938 L 14.5 -2.585938 L 11.730469 -7.027344 C 13.195312 -7.433594 14.152344 -8.453125 14.152344 -10.058594 C 14.152344 -12.339844 12.421875 -13.136719 10.082031 -13.136719 L 6.414062 -13.136719 L 6.414062 -2.585938 L 8.144531 -2.585938 Z M 18.714844 0.792969 L 1.648438 0.792969 L 1.648438 -16.269531 L 18.714844 -16.269531 Z M 1.019531 -16.902344 L 1.019531 1.425781 L 19.347656 1.425781 L 19.347656 -16.902344 Z M 1.019531 -16.902344 "/></g></g></g><g clip-path="url(#e8f71997b1)"><path fill="#e87a00" d="M 89.695312 91.40625 L 39.132812 62.214844 L 39.132812 86.125 L 107.847656 125.796875 L 107.847656 15.320312 L 89.695312 15.320312 L 89.695312 91.40625 " fill-opacity="1" fill-rule="nonzero"/></g><g clip-path="url(#41a8290baf)"><path fill="#ffff00" d="M 4.777344 1.046875 L 4.777344 111.523438 L 22.933594 111.523438 L 22.933594 35.4375 L 73.492188 64.628906 L 73.492188 40.71875 L 4.777344 1.046875 " fill-opacity="1" fill-rule="nonzero"/></g></svg>